<svg width="97" height="121" viewBox="0 0 97 121" fill="none" xmlns="http://www.w3.org/2000/svg">
<g clip-path="url(#clip0_105102_3272)">
<path d="M69.8288 37.245L50.6154 48.1892C50.2695 48.3926 49.8424 48.3926 49.4864 48.1892L30.2729 37.245C29.5203 36.8178 29.5203 35.7295 30.2729 35.2921L49.4864 24.3479C49.8322 24.1445 50.2594 24.1445 50.6154 24.3479L69.8288 35.2921C70.5815 35.7193 70.5815 36.8076 69.8288 37.245Z" fill="white"/>
<path d="M66.5028 40.927V49.9489C66.5028 50.3557 66.2892 50.7219 65.9332 50.9253L50.6154 59.6522C50.2696 59.8556 49.8424 59.8556 49.4864 59.6522L34.1685 50.9253C33.8125 50.7219 33.5989 50.3557 33.5989 49.9489V40.927L42.0919 45.7583L49.4864 49.9794C49.8322 50.1828 50.2594 50.1828 50.6154 49.9794L58.0099 45.7583L66.5028 40.927Z" fill="white"/>
<path d="M75.4535 26.0363L75.9824 25.6702C76.6232 25.2226 76.5418 24.2564 75.84 23.9207L71.6291 21.917C70.9171 21.5813 70.1136 22.1408 70.1746 22.9239L70.5815 27.5722C70.6527 28.3452 71.5376 28.7622 72.1783 28.3147L72.931 27.796C79.6237 38.5774 77.8234 52.9392 68.4659 61.6865C59.2609 70.2913 45.0721 71.3389 34.7279 64.1784C34.0363 63.7004 33.0802 63.8733 32.6022 64.5649C32.1241 65.2565 32.297 66.2126 32.9887 66.6907C38.1048 70.2303 44.0549 71.9696 49.9949 71.9696C57.4301 71.9696 64.8449 69.2437 70.551 63.9139C80.9968 54.1394 83.0107 38.0587 75.4535 26.0363Z" fill="white"/>
<path d="M67.1131 17.3095C55.5993 9.33525 39.8034 10.5049 29.5508 20.0862C18.8405 30.1049 16.9181 46.1144 24.9025 58.3402L24.16 58.8487C23.5192 59.2963 23.6006 60.2625 24.3024 60.5982L28.5133 62.6019C29.2253 62.9376 30.0288 62.3781 29.9678 61.595L29.561 56.9467C29.4898 56.1737 28.6049 55.7567 27.9641 56.2042L27.4148 56.5907C20.3153 45.616 22.0343 31.2847 31.6359 22.3137C40.8408 13.7089 55.0297 12.6511 65.3738 19.8218C66.0654 20.2998 67.0215 20.1269 67.4996 19.4353C67.9776 18.7436 67.8047 17.7875 67.1131 17.3095Z" fill="white"/>
</g>
<path d="M0.660812 91.368C0.660812 90.2587 0.900813 89.272 1.38081 88.408C1.86081 87.5333 2.52748 86.856 3.38081 86.376C4.24481 85.8853 5.22081 85.64 6.30881 85.64C7.64215 85.64 8.78348 85.992 9.73281 86.696C10.6821 87.4 11.3168 88.36 11.6368 89.576H8.62881C8.40481 89.1067 8.08481 88.7493 7.66881 88.504C7.26348 88.2587 6.79948 88.136 6.27681 88.136C5.43415 88.136 4.75148 88.4293 4.22881 89.016C3.70615 89.6027 3.44481 90.3867 3.44481 91.368C3.44481 92.3493 3.70615 93.1333 4.22881 93.72C4.75148 94.3067 5.43415 94.6 6.27681 94.6C6.79948 94.6 7.26348 94.4773 7.66881 94.232C8.08481 93.9867 8.40481 93.6293 8.62881 93.16H11.6368C11.3168 94.376 10.6821 95.336 9.73281 96.04C8.78348 96.7333 7.64215 97.08 6.30881 97.08C5.22081 97.08 4.24481 96.84 3.38081 96.36C2.52748 95.8693 1.86081 95.192 1.38081 94.328C0.900813 93.464 0.660812 92.4773 0.660812 91.368ZM17.3763 97.128C16.5016 97.128 15.7123 96.9413 15.0083 96.568C14.315 96.1947 13.7656 95.6613 13.3603 94.968C12.9656 94.2747 12.7683 93.464 12.7683 92.536C12.7683 91.6187 12.971 90.8133 13.3763 90.12C13.7816 89.416 14.3363 88.8773 15.0403 88.504C15.7443 88.1307 16.5336 87.944 17.4083 87.944C18.283 87.944 19.0723 88.1307 19.7763 88.504C20.4803 88.8773 21.035 89.416 21.4403 90.12C21.8456 90.8133 22.0483 91.6187 22.0483 92.536C22.0483 93.4533 21.8403 94.264 21.4243 94.968C21.019 95.6613 20.459 96.1947 19.7443 96.568C19.0403 96.9413 18.251 97.128 17.3763 97.128ZM17.3763 94.76C17.899 94.76 18.3416 94.568 18.7043 94.184C19.0776 93.8 19.2643 93.2507 19.2643 92.536C19.2643 91.8213 19.083 91.272 18.7203 90.888C18.3683 90.504 17.931 90.312 17.4083 90.312C16.875 90.312 16.4323 90.504 16.0803 90.888C15.7283 91.2613 15.5523 91.8107 15.5523 92.536C15.5523 93.2507 15.723 93.8 16.0643 94.184C16.4163 94.568 16.8536 94.76 17.3763 94.76ZM28.9398 87.976C29.9851 87.976 30.8171 88.3173 31.4358 89C32.0651 89.672 32.3798 90.6 32.3798 91.784V97H29.6598V92.152C29.6598 91.5547 29.5051 91.0907 29.1958 90.76C28.8865 90.4293 28.4705 90.264 27.9478 90.264C27.4251 90.264 27.0091 90.4293 26.6998 90.76C26.3905 91.0907 26.2358 91.5547 26.2358 92.152V97H23.4998V88.072H26.2358V89.256C26.5131 88.8613 26.8865 88.552 27.3558 88.328C27.8251 88.0933 28.3531 87.976 28.9398 87.976ZM39.2571 94.68V97H37.8651C36.8731 97 36.0997 96.76 35.5451 96.28C34.9904 95.7893 34.7131 94.9947 34.7131 93.896V90.344H33.6251V88.072H34.7131V85.896H37.4491V88.072H39.2411V90.344H37.4491V93.928C37.4491 94.1947 37.5131 94.3867 37.6411 94.504C37.7691 94.6213 37.9824 94.68 38.2811 94.68H39.2571ZM42.1571 87.144C41.6771 87.144 41.2824 87.0053 40.9731 86.728C40.6744 86.44 40.5251 86.088 40.5251 85.672C40.5251 85.2453 40.6744 84.8933 40.9731 84.616C41.2824 84.328 41.6771 84.184 42.1571 84.184C42.6264 84.184 43.0104 84.328 43.3091 84.616C43.6184 84.8933 43.7731 85.2453 43.7731 85.672C43.7731 86.088 43.6184 86.44 43.3091 86.728C43.0104 87.0053 42.6264 87.144 42.1571 87.144ZM43.5171 88.072V97H40.7811V88.072H43.5171ZM50.9398 87.976C51.9851 87.976 52.8171 88.3173 53.4358 89C54.0651 89.672 54.3798 90.6 54.3798 91.784V97H51.6598V92.152C51.6598 91.5547 51.5051 91.0907 51.1958 90.76C50.8865 90.4293 50.4705 90.264 49.9478 90.264C49.4251 90.264 49.0091 90.4293 48.6998 90.76C48.3905 91.0907 48.2358 91.5547 48.2358 92.152V97H45.4998V88.072H48.2358V89.256C48.5131 88.8613 48.8865 88.552 49.3558 88.328C49.8251 88.0933 50.3531 87.976 50.9398 87.976ZM65.0971 88.072V97H62.3611V95.784C62.0837 96.1787 61.7051 96.4987 61.2251 96.744C60.7557 96.9787 60.2331 97.096 59.6571 97.096C58.9744 97.096 58.3717 96.9467 57.8491 96.648C57.3264 96.3387 56.9211 95.896 56.6331 95.32C56.3451 94.744 56.2011 94.0667 56.2011 93.288V88.072H58.9211V92.92C58.9211 93.5173 59.0757 93.9813 59.3851 94.312C59.6944 94.6427 60.1104 94.808 60.6331 94.808C61.1664 94.808 61.5877 94.6427 61.8971 94.312C62.2064 93.9813 62.3611 93.5173 62.3611 92.92V88.072H65.0971ZM66.5183 92.52C66.5183 91.6027 66.689 90.7973 67.0303 90.104C67.3823 89.4107 67.857 88.8773 68.4543 88.504C69.0516 88.1307 69.7183 87.944 70.4543 87.944C71.0836 87.944 71.633 88.072 72.1023 88.328C72.5823 88.584 72.9503 88.92 73.2063 89.336V88.072H75.9423V97H73.2063V95.736C72.9396 96.152 72.5663 96.488 72.0863 96.744C71.617 97 71.0676 97.128 70.4383 97.128C69.713 97.128 69.0516 96.9413 68.4543 96.568C67.857 96.184 67.3823 95.6453 67.0303 94.952C66.689 94.248 66.5183 93.4373 66.5183 92.52ZM73.2063 92.536C73.2063 91.8533 73.0143 91.3147 72.6303 90.92C72.257 90.5253 71.7983 90.328 71.2543 90.328C70.7103 90.328 70.2463 90.5253 69.8623 90.92C69.489 91.304 69.3023 91.8373 69.3023 92.52C69.3023 93.2027 69.489 93.7467 69.8623 94.152C70.2463 94.5467 70.7103 94.744 71.2543 94.744C71.7983 94.744 72.257 94.5467 72.6303 94.152C73.0143 93.7573 73.2063 93.2187 73.2063 92.536ZM80.6577 85.16V97H77.9217V85.16H80.6577ZM85.3764 85.16V97H82.6404V85.16H85.3764ZM96.4792 88.072L90.8792 101.24H87.9352L89.9832 96.696L86.3512 88.072H89.4072L91.4712 93.656L93.5192 88.072H96.4792ZM19.0171 104.16V116H16.2811V104.16H19.0171ZM29.4158 111.392C29.4158 111.648 29.3998 111.915 29.3678 112.192H23.1758C23.2185 112.747 23.3945 113.173 23.7038 113.472C24.0238 113.76 24.4131 113.904 24.8718 113.904C25.5545 113.904 26.0291 113.616 26.2958 113.04H29.2078C29.0585 113.627 28.7865 114.155 28.3918 114.624C28.0078 115.093 27.5225 115.461 26.9358 115.728C26.3491 115.995 25.6931 116.128 24.9678 116.128C24.0931 116.128 23.3145 115.941 22.6318 115.568C21.9491 115.195 21.4158 114.661 21.0318 113.968C20.6478 113.275 20.4558 112.464 20.4558 111.536C20.4558 110.608 20.6425 109.797 21.0158 109.104C21.3998 108.411 21.9331 107.877 22.6158 107.504C23.2985 107.131 24.0825 106.944 24.9678 106.944C25.8318 106.944 26.5998 107.125 27.2718 107.488C27.9438 107.851 28.4665 108.368 28.8398 109.04C29.2238 109.712 29.4158 110.496 29.4158 111.392ZM26.6158 110.672C26.6158 110.203 26.4558 109.829 26.1358 109.552C25.8158 109.275 25.4158 109.136 24.9358 109.136C24.4771 109.136 24.0878 109.269 23.7678 109.536C23.4585 109.803 23.2665 110.181 23.1918 110.672H26.6158ZM30.3152 111.52C30.3152 110.603 30.4859 109.797 30.8272 109.104C31.1792 108.411 31.6539 107.877 32.2512 107.504C32.8485 107.131 33.5152 106.944 34.2512 106.944C34.8805 106.944 35.4299 107.072 35.8992 107.328C36.3792 107.584 36.7472 107.92 37.0032 108.336V107.072H39.7392V116H37.0032V114.736C36.7365 115.152 36.3632 115.488 35.8832 115.744C35.4139 116 34.8645 116.128 34.2352 116.128C33.5099 116.128 32.8485 115.941 32.2512 115.568C31.6539 115.184 31.1792 114.645 30.8272 113.952C30.4859 113.248 30.3152 112.437 30.3152 111.52ZM37.0032 111.536C37.0032 110.853 36.8112 110.315 36.4272 109.92C36.0539 109.525 35.5952 109.328 35.0512 109.328C34.5072 109.328 34.0432 109.525 33.6592 109.92C33.2859 110.304 33.0992 110.837 33.0992 111.52C33.0992 112.203 33.2859 112.747 33.6592 113.152C34.0432 113.547 34.5072 113.744 35.0512 113.744C35.5952 113.744 36.0539 113.547 36.4272 113.152C36.8112 112.757 37.0032 112.219 37.0032 111.536ZM44.4546 108.56C44.7746 108.069 45.1746 107.685 45.6546 107.408C46.1346 107.12 46.6679 106.976 47.2546 106.976V109.872H46.5026C45.8199 109.872 45.3079 110.021 44.9666 110.32C44.6252 110.608 44.4546 111.12 44.4546 111.856V116H41.7186V107.072H44.4546V108.56ZM54.0023 106.976C55.0476 106.976 55.8796 107.317 56.4983 108C57.1276 108.672 57.4423 109.6 57.4423 110.784V116H54.7223V111.152C54.7223 110.555 54.5676 110.091 54.2583 109.76C53.949 109.429 53.533 109.264 53.0103 109.264C52.4876 109.264 52.0716 109.429 51.7623 109.76C51.453 110.091 51.2983 110.555 51.2983 111.152V116H48.5623V107.072H51.2983V108.256C51.5756 107.861 51.949 107.552 52.4183 107.328C52.8876 107.093 53.4156 106.976 54.0023 106.976ZM60.7196 106.144C60.2396 106.144 59.8449 106.005 59.5356 105.728C59.2369 105.44 59.0876 105.088 59.0876 104.672C59.0876 104.245 59.2369 103.893 59.5356 103.616C59.8449 103.328 60.2396 103.184 60.7196 103.184C61.1889 103.184 61.5729 103.328 61.8716 103.616C62.1809 103.893 62.3356 104.245 62.3356 104.672C62.3356 105.088 62.1809 105.44 61.8716 105.728C61.5729 106.005 61.1889 106.144 60.7196 106.144ZM62.0796 107.072V116H59.3436V107.072H62.0796ZM69.5023 106.976C70.5476 106.976 71.3796 107.317 71.9983 108C72.6276 108.672 72.9423 109.6 72.9423 110.784V116H70.2223V111.152C70.2223 110.555 70.0676 110.091 69.7583 109.76C69.449 109.429 69.033 109.264 68.5103 109.264C67.9876 109.264 67.5716 109.429 67.2623 109.76C66.953 110.091 66.7983 110.555 66.7983 111.152V116H64.0623V107.072H66.7983V108.256C67.0756 107.861 67.449 107.552 67.9183 107.328C68.3876 107.093 68.9156 106.976 69.5023 106.976ZM78.2356 106.944C78.8649 106.944 79.4142 107.072 79.8836 107.328C80.3636 107.584 80.7316 107.92 80.9876 108.336V107.072H83.7236V115.984C83.7236 116.805 83.5582 117.547 83.2276 118.208C82.9076 118.88 82.4116 119.413 81.7396 119.808C81.0782 120.203 80.2516 120.4 79.2596 120.4C77.9369 120.4 76.8649 120.085 76.0436 119.456C75.2222 118.837 74.7529 117.995 74.6356 116.928H77.3396C77.4249 117.269 77.6276 117.536 77.9476 117.728C78.2676 117.931 78.6622 118.032 79.1316 118.032C79.6969 118.032 80.1449 117.867 80.4756 117.536C80.8169 117.216 80.9876 116.699 80.9876 115.984V114.72C80.7209 115.136 80.3529 115.477 79.8836 115.744C79.4142 116 78.8649 116.128 78.2356 116.128C77.4996 116.128 76.8329 115.941 76.2356 115.568C75.6382 115.184 75.1636 114.645 74.8116 113.952C74.4702 113.248 74.2996 112.437 74.2996 111.52C74.2996 110.603 74.4702 109.797 74.8116 109.104C75.1636 108.411 75.6382 107.877 76.2356 107.504C76.8329 107.131 77.4996 106.944 78.2356 106.944ZM80.9876 111.536C80.9876 110.853 80.7956 110.315 80.4116 109.92C80.0382 109.525 79.5796 109.328 79.0356 109.328C78.4916 109.328 78.0276 109.525 77.6436 109.92C77.2702 110.304 77.0836 110.837 77.0836 111.52C77.0836 112.203 77.2702 112.747 77.6436 113.152C78.0276 113.547 78.4916 113.744 79.0356 113.744C79.5796 113.744 80.0382 113.547 80.4116 113.152C80.7956 112.757 80.9876 112.219 80.9876 111.536Z" fill="white"/>
<defs>
<clipPath id="clip0_105102_3272">
<rect width="60" height="59.939" fill="white" transform="translate(20 12.0305)"/>
</clipPath>
</defs>
</svg>
