<svg width="88" height="120" viewBox="0 0 88 120" fill="none" xmlns="http://www.w3.org/2000/svg">
<path d="M44 12L71.9 21.96L67.646 58.89L44 72L20.354 58.89L16.1 21.96L44 12ZM44 18.63L26.558 57.78H33.062L36.569 49.02H51.371L54.881 57.78H61.382L44 18.63ZM49.094 43.62H38.906L44 31.35L49.094 43.62Z" fill="white"/>
<path d="M28.3452 85.768V97H25.6092V85.768H28.3452ZM29.7839 92.536C29.7839 91.608 29.9706 90.7973 30.3439 90.104C30.7279 89.4107 31.2559 88.8773 31.9279 88.504C32.6106 88.1307 33.3893 87.944 34.2639 87.944C35.3839 87.944 36.3173 88.2373 37.0639 88.824C37.8213 89.4107 38.3173 90.2373 38.5519 91.304H35.6399C35.3946 90.6213 34.9199 90.28 34.2159 90.28C33.7146 90.28 33.3146 90.4773 33.0159 90.872C32.7173 91.256 32.5679 91.8107 32.5679 92.536C32.5679 93.2613 32.7173 93.8213 33.0159 94.216C33.3146 94.6 33.7146 94.792 34.2159 94.792C34.9199 94.792 35.3946 94.4507 35.6399 93.768H38.5519C38.3173 94.8133 37.8213 95.6347 37.0639 96.232C36.3066 96.8293 35.3733 97.128 34.2639 97.128C33.3893 97.128 32.6106 96.9413 31.9279 96.568C31.2559 96.1947 30.7279 95.6613 30.3439 94.968C29.9706 94.2747 29.7839 93.464 29.7839 92.536ZM44.0794 97.128C43.2048 97.128 42.4154 96.9413 41.7114 96.568C41.0181 96.1947 40.4688 95.6613 40.0634 94.968C39.6688 94.2747 39.4714 93.464 39.4714 92.536C39.4714 91.6187 39.6741 90.8133 40.0794 90.12C40.4848 89.416 41.0394 88.8773 41.7434 88.504C42.4474 88.1307 43.2368 87.944 44.1114 87.944C44.9861 87.944 45.7754 88.1307 46.4794 88.504C47.1834 88.8773 47.7381 89.416 48.1434 90.12C48.5488 90.8133 48.7514 91.6187 48.7514 92.536C48.7514 93.4533 48.5434 94.264 48.1274 94.968C47.7221 95.6613 47.1621 96.1947 46.4474 96.568C45.7434 96.9413 44.9541 97.128 44.0794 97.128ZM44.0794 94.76C44.6021 94.76 45.0448 94.568 45.4074 94.184C45.7808 93.8 45.9674 93.2507 45.9674 92.536C45.9674 91.8213 45.7861 91.272 45.4234 90.888C45.0714 90.504 44.6341 90.312 44.1114 90.312C43.5781 90.312 43.1354 90.504 42.7834 90.888C42.4314 91.2613 42.2554 91.8107 42.2554 92.536C42.2554 93.2507 42.4261 93.8 42.7674 94.184C43.1194 94.568 43.5568 94.76 44.0794 94.76ZM55.6429 87.976C56.6883 87.976 57.5203 88.3173 58.1389 89C58.7683 89.672 59.0829 90.6 59.0829 91.784V97H56.3629V92.152C56.3629 91.5547 56.2083 91.0907 55.8989 90.76C55.5896 90.4293 55.1736 90.264 54.6509 90.264C54.1283 90.264 53.7123 90.4293 53.4029 90.76C53.0936 91.0907 52.9389 91.5547 52.9389 92.152V97H50.2029V88.072H52.9389V89.256C53.2163 88.8613 53.5896 88.552 54.0589 88.328C54.5283 88.0933 55.0563 87.976 55.6429 87.976ZM26.2133 106.976C27.2586 106.976 28.0906 107.317 28.7093 108C29.3386 108.672 29.6533 109.6 29.6533 110.784V116H26.9333V111.152C26.9333 110.555 26.7786 110.091 26.4693 109.76C26.1599 109.429 25.7439 109.264 25.2213 109.264C24.6986 109.264 24.2826 109.429 23.9733 109.76C23.6639 110.091 23.5093 110.555 23.5093 111.152V116H20.7733V107.072H23.5093V108.256C23.7866 107.861 24.1599 107.552 24.6293 107.328C25.0986 107.093 25.6266 106.976 26.2133 106.976ZM31.0105 111.52C31.0105 110.603 31.1812 109.797 31.5225 109.104C31.8745 108.411 32.3492 107.877 32.9465 107.504C33.5438 107.131 34.2105 106.944 34.9465 106.944C35.5758 106.944 36.1252 107.072 36.5945 107.328C37.0745 107.584 37.4425 107.92 37.6985 108.336V107.072H40.4345V116H37.6985V114.736C37.4318 115.152 37.0585 115.488 36.5785 115.744C36.1092 116 35.5598 116.128 34.9305 116.128C34.2052 116.128 33.5438 115.941 32.9465 115.568C32.3492 115.184 31.8745 114.645 31.5225 113.952C31.1812 113.248 31.0105 112.437 31.0105 111.52ZM37.6985 111.536C37.6985 110.853 37.5065 110.315 37.1225 109.92C36.7492 109.525 36.2905 109.328 35.7465 109.328C35.2025 109.328 34.7385 109.525 34.3545 109.92C33.9812 110.304 33.7945 110.837 33.7945 111.52C33.7945 112.203 33.9812 112.747 34.3545 113.152C34.7385 113.547 35.2025 113.744 35.7465 113.744C36.2905 113.744 36.7492 113.547 37.1225 113.152C37.5065 112.757 37.6985 112.219 37.6985 111.536ZM53.8059 106.976C54.9152 106.976 55.7952 107.312 56.4459 107.984C57.1072 108.656 57.4379 109.589 57.4379 110.784V116H54.7179V111.152C54.7179 110.576 54.5632 110.133 54.2539 109.824C53.9552 109.504 53.5392 109.344 53.0059 109.344C52.4725 109.344 52.0512 109.504 51.7419 109.824C51.4432 110.133 51.2939 110.576 51.2939 111.152V116H48.5739V111.152C48.5739 110.576 48.4192 110.133 48.1099 109.824C47.8112 109.504 47.3952 109.344 46.8619 109.344C46.3285 109.344 45.9072 109.504 45.5979 109.824C45.2992 110.133 45.1499 110.576 45.1499 111.152V116H42.4139V107.072H45.1499V108.192C45.4272 107.819 45.7899 107.525 46.2379 107.312C46.6859 107.088 47.1925 106.976 47.7579 106.976C48.4299 106.976 49.0272 107.12 49.5499 107.408C50.0832 107.696 50.4992 108.107 50.7979 108.64C51.1072 108.149 51.5285 107.749 52.0619 107.44C52.5952 107.131 53.1765 106.976 53.8059 106.976ZM67.7674 111.392C67.7674 111.648 67.7514 111.915 67.7194 112.192H61.5274C61.57 112.747 61.746 113.173 62.0554 113.472C62.3754 113.76 62.7647 113.904 63.2234 113.904C63.906 113.904 64.3807 113.616 64.6474 113.04H67.5594C67.41 113.627 67.138 114.155 66.7434 114.624C66.3594 115.093 65.874 115.461 65.2874 115.728C64.7007 115.995 64.0447 116.128 63.3194 116.128C62.4447 116.128 61.666 115.941 60.9834 115.568C60.3007 115.195 59.7674 114.661 59.3834 113.968C58.9994 113.275 58.8074 112.464 58.8074 111.536C58.8074 110.608 58.994 109.797 59.3674 109.104C59.7514 108.411 60.2847 107.877 60.9674 107.504C61.65 107.131 62.434 106.944 63.3194 106.944C64.1834 106.944 64.9514 107.125 65.6234 107.488C66.2954 107.851 66.818 108.368 67.1914 109.04C67.5754 109.712 67.7674 110.496 67.7674 111.392ZM64.9674 110.672C64.9674 110.203 64.8074 109.829 64.4874 109.552C64.1674 109.275 63.7674 109.136 63.2874 109.136C62.8287 109.136 62.4394 109.269 62.1194 109.536C61.81 109.803 61.618 110.181 61.5434 110.672H64.9674Z" fill="white"/>
</svg>
