<svg width="32" height="32" viewBox="0 0 32 32" fill="none" xmlns="http://www.w3.org/2000/svg">
<mask id="mask0_105102_3618" style="mask-type:alpha" maskUnits="userSpaceOnUse" x="0" y="0" width="32" height="32">
<rect width="32" height="32" fill="#D9D9D9"/>
</mask>
<g mask="url(#mask0_105102_3618)">
<path d="M21.5667 17.3334H6.66671C6.28893 17.3334 5.97226 17.2056 5.71671 16.95C5.46115 16.6945 5.33337 16.3778 5.33337 16C5.33337 15.6222 5.46115 15.3056 5.71671 15.05C5.97226 14.7945 6.28893 14.6667 6.66671 14.6667H21.5667L15.0334 8.13336C14.7667 7.86669 14.6389 7.55558 14.65 7.20002C14.6612 6.84447 14.8 6.53336 15.0667 6.26669C15.3334 6.02225 15.6445 5.89447 16 5.88336C16.3556 5.87225 16.6667 6.00002 16.9334 6.26669L25.7334 15.0667C25.8667 15.2 25.9612 15.3445 26.0167 15.5C26.0723 15.6556 26.1 15.8222 26.1 16C26.1 16.1778 26.0723 16.3445 26.0167 16.5C25.9612 16.6556 25.8667 16.8 25.7334 16.9334L16.9334 25.7334C16.6889 25.9778 16.3834 26.1 16.0167 26.1C15.65 26.1 15.3334 25.9778 15.0667 25.7334C14.8 25.4667 14.6667 25.15 14.6667 24.7834C14.6667 24.4167 14.8 24.1 15.0667 23.8334L21.5667 17.3334Z" fill="#70E61C"/>
</g>
</svg>
