<svg width="24" height="32" viewBox="0 0 24 32" fill="none" xmlns="http://www.w3.org/2000/svg">
<path d="M19.6373 18.3951C18.5009 19.9538 17.3066 21.5918 16.6521 23.4937H7.3506C6.69334 21.5696 5.47536 19.9072 4.31852 18.3283L4.30564 18.3107L4.3053 18.3103C3.97876 17.8657 3.6566 17.427 3.34743 16.983L3.3469 16.9823C2.16292 15.2888 1.46912 13.2258 1.46912 11C1.46912 5.20246 6.18274 0.5 11.9999 0.5C17.817 0.5 22.5308 5.20228 22.5308 11.0062C22.5308 13.2316 21.8372 15.2887 20.6525 16.9892L20.6525 16.9893C20.3433 17.4332 20.0211 17.8719 19.6946 18.3165L19.6935 18.318L19.6373 18.3951ZM16.514 27C16.514 29.485 14.4954 31.5 11.9999 31.5C9.50453 31.5 7.48593 29.485 7.48593 27V26.5H16.514V27ZM5.98313 12.5C6.80949 12.5 7.48593 11.8275 7.48593 11C7.48593 8.51496 9.50453 6.5 11.9999 6.5C12.8263 6.5 13.5028 5.82746 13.5028 5C13.5028 4.17254 12.8263 3.5 11.9999 3.5C7.84553 3.5 4.48033 6.85379 4.48033 11C4.48033 11.8275 5.15677 12.5 5.98313 12.5Z" stroke="#70E61C"/>
</svg>
