<svg width="28" height="40" viewBox="0 0 28 40" fill="none" xmlns="http://www.w3.org/2000/svg">
<path d="M23.6529 23.0604C22.2118 25.037 20.7097 27.0971 19.9047 29.4922H8.09855C7.29049 27.0695 5.75854 24.9786 4.29134 22.9761L4.28125 22.9623L4.28091 22.9618C3.87289 22.4063 3.46926 21.8567 3.08174 21.3002L3.08121 21.2994C1.58698 19.1622 0.711426 16.5586 0.711426 13.75C0.711426 6.43371 6.65975 0.5 14 0.5C21.34 0.5 27.2885 6.43353 27.2885 13.7578C27.2885 16.566 26.4132 19.1621 24.9183 21.3079L24.9182 21.308C24.5307 21.8645 24.127 22.4141 23.719 22.9696L23.718 22.9711L23.6529 23.0604ZM19.7675 33.75C19.7675 36.9257 17.188 39.5 14 39.5C10.812 39.5 8.23245 36.9257 8.23245 33.75V33H19.7675V33.75ZM6.47895 15.5C7.44319 15.5 8.23245 14.715 8.23245 13.75C8.23245 10.5743 10.812 8 14 8C14.9642 8 15.7535 7.21496 15.7535 6.25C15.7535 5.28504 14.9642 4.5 14 4.5C8.87565 4.5 4.72544 8.6366 4.72544 13.75C4.72544 14.715 5.5147 15.5 6.47895 15.5Z" stroke="#1CDAE6"/>
</svg>
