<svg width="48" height="48" viewBox="0 0 48 48" fill="none" xmlns="http://www.w3.org/2000/svg">
<path d="M19.9064 1.6C22.8763 1.68 25.2843 4.16 25.2843 7.12V8.56V10.16H26.8896H33.7124H33.7926C34.3545 10.16 34.9164 10.24 35.398 10.48C35.8796 10.64 36.2809 10.96 36.602 11.28L36.7625 11.44C37.1639 11.84 37.485 12.32 37.7258 12.8C37.9666 13.28 38.0468 13.84 38.0468 14.48V21.28V22.88H39.6522H41.097C44.1472 22.88 46.6355 25.28 46.6355 28.24C46.6355 31.28 44.2274 33.76 41.1773 33.76H39.6522H38.0468V35.36V42.16C38.0468 44.56 36.1204 46.48 33.7926 46.48H25.6856V43.2C25.6856 42.56 25.5251 41.84 25.2843 41.28C25.0435 40.64 24.6421 40.16 24.1605 39.68C23.0368 38.56 21.4314 38 19.8261 38H19.7458C18.4615 38 17.1773 38.4 16.1338 39.12H16.0535L15.5719 39.52C14.4482 40.56 13.806 41.84 13.806 43.36V46.56H6.02007C4.97659 46.56 3.85284 46.16 3.13043 45.44L2.9699 45.28C2.16722 44.48 1.68562 43.36 1.68562 42.24V34.4H4.97659C6.4214 34.4 7.78595 33.84 8.82943 32.72C9.3913 32.16 9.87291 31.44 10.194 30.72C10.515 30 10.6756 29.2 10.6756 28.4C10.5151 25.04 7.86622 22.4 4.81605 22.4H1.60535V14.4C1.60535 13.84 1.68562 13.28 1.92642 12.72C2.16722 12.16 2.48829 11.76 2.88963 11.36C3.69231 10.56 4.81605 10.16 6.02007 10.16H12.8428H14.4482V8.56V7.04C14.4482 6.32 14.6087 5.6 14.8495 4.96V4.8C15.1706 4.16 15.4916 3.6 15.9732 3.12C16.4548 2.64 17.097 2.24 17.7391 1.92C18.4615 1.76 19.1839 1.6 19.9064 1.6ZM19.9064 0C19.0234 0 18.0602 0.16 17.2575 0.48C16.3746 0.8 15.5719 1.36 14.9298 2C14.2876 2.64 13.7258 3.44 13.4047 4.32C13.0836 5.2 12.8428 6.08 12.8428 7.04V8.56H6.02007C4.49498 8.56 2.9699 9.12 1.84615 10.24C1.28428 10.8 0.802676 11.44 0.561873 12.16C0.160535 12.88 0 13.68 0 14.4V24H4.81605C6.98328 24 8.9097 25.92 8.9097 28.16C8.9097 28.72 8.82943 29.36 8.58863 29.92C8.34783 30.48 8.02676 30.96 7.62542 31.36C6.90301 32.08 5.9398 32.56 4.89632 32.56H0V42C0 43.6 0.642141 45.12 1.76589 46.24C2.88963 47.36 4.41472 48 6.02007 48H15.4916V43.2C15.4916 41.92 16.1338 41.04 16.6957 40.56C17.5786 39.84 18.6221 39.44 19.7458 39.44H19.8261C21.0301 39.44 22.2341 39.92 23.0368 40.72C23.3579 41.04 23.5987 41.44 23.7592 41.84C23.9197 42.24 24 42.72 24 43.12V48H33.5518C36.7625 48 39.4114 45.36 39.4114 42.08V35.28H40.9365C44.7893 35.28 48 32.08 48 28.16C48 24.32 44.7893 21.2 40.8562 21.2H39.4114V14.4C39.4114 13.6 39.2508 12.88 39.01 12.16C38.689 11.44 38.2876 10.8 37.7258 10.24C37.1639 9.68 36.5217 9.28 35.7993 8.96C35.0769 8.64 34.3545 8.56 33.6321 8.56H33.5518H26.7291V7.12C26.8896 3.28 23.7592 0.08 19.9064 0Z" fill="#1CDAE6"/>
</svg>
