<svg width="150" height="28" viewBox="0 0 150 28" fill="none" xmlns="http://www.w3.org/2000/svg">
<path d="M10.8025 1.23987C12.6543 1.23987 14.1975 1.54983 15.4321 1.85979C16.9753 2.4797 18.2099 3.09962 19.1358 4.0295C20.0617 4.95938 20.9877 5.88925 21.6049 7.43905C22.2222 8.67889 22.5309 10.2287 22.5309 11.7785C22.5309 12.3984 22.5309 12.7084 22.5309 13.3283C22.5309 13.9482 22.5309 14.2581 22.5309 14.5681C22.5309 14.8781 22.5309 15.498 22.5309 15.8079C22.5309 16.1179 22.5309 16.7378 22.5309 17.0478C22.5309 18.5976 22.2222 19.8374 21.6049 21.3872C20.9877 22.3171 20.0617 23.247 19.1358 24.1768C18.2099 25.1067 16.9753 26.0366 15.7407 26.3466C14.1975 26.9665 12.6543 27.2764 11.1111 27.2764H0.925926C0.617284 27.2764 0.308642 27.2764 0.308642 26.9665C0 26.6565 0 26.3466 0 26.0366V2.16975C0 1.85979 0 1.54983 0.308642 1.54983C0.617284 1.23987 0.617284 1.23987 0.925926 1.23987H10.8025ZM15.7407 11.4685C15.7407 8.67889 13.8889 7.12909 10.8025 7.12909H6.79012V21.3872H10.8025C13.8889 21.3872 15.4321 19.8374 15.7407 17.0478C15.7407 16.4279 15.7407 16.1179 15.7407 15.498C15.7407 14.8781 15.7407 14.5681 15.7407 14.2582C15.7407 13.9482 15.7407 13.3283 15.7407 13.0183C15.7407 12.7084 15.7407 11.7785 15.7407 11.4685Z" fill="white"/>
<path d="M45.679 16.1178C45.679 16.4278 45.679 17.0477 45.679 17.6676C45.679 18.2876 45.679 18.5975 45.679 19.2174C45.679 20.4573 45.3704 21.3871 44.7531 22.627C44.1358 23.5569 43.5185 24.4867 42.5926 25.4166C41.6667 26.3465 40.7408 26.6565 39.5062 27.2764C38.2716 27.5863 37.0371 27.8963 35.4939 27.8963C33.9506 27.8963 32.7161 27.5863 31.4815 27.2764C30.2469 26.9664 29.321 26.3465 28.3951 25.4166C27.4692 24.1768 26.8519 23.2469 26.2346 22.317C25.926 21.3871 25.6173 20.1473 25.6173 18.9075C25.6173 18.5975 25.6173 17.9776 25.6173 17.3577C25.6173 16.7378 25.6173 16.4278 25.6173 15.8079C25.6173 14.568 25.926 13.6382 26.5432 12.3983C27.1605 11.4685 27.7778 10.5386 28.7037 9.6087C29.6297 8.67882 30.5556 8.05891 31.7901 7.74895C33.0247 7.43899 34.2593 7.12903 35.8025 7.12903C37.3457 7.12903 38.5803 7.43899 39.8148 7.74895C41.0494 8.05891 41.9753 8.67882 42.9013 9.6087C43.8272 10.5386 44.4445 11.1585 45.0618 12.3983C45.3704 13.6382 45.679 14.878 45.679 16.1178ZM32.0988 18.5975C32.0988 19.5274 32.4074 20.1473 33.0247 20.7672C33.9506 21.3871 34.5679 21.6971 35.4939 21.6971C36.4198 21.6971 37.3457 21.3871 37.963 20.7672C38.5803 20.1473 38.8889 19.5274 38.8889 18.5975C38.8889 18.2876 38.8889 17.6676 38.8889 17.3577C38.8889 16.7378 38.8889 16.4278 38.8889 16.1178C38.8889 15.188 38.5803 14.568 37.963 13.9481C37.3457 13.3282 36.4198 13.0183 35.4939 13.0183C34.5679 13.0183 33.642 13.3282 33.0247 13.9481C32.4074 14.568 32.0988 15.188 32.0988 16.1178C32.0988 16.4278 32.0988 17.0477 32.0988 17.3577C32.0988 17.9776 32.0988 18.2876 32.0988 18.5975Z" fill="white"/>
<path d="M79.6296 26.0365C79.6296 26.3465 79.6296 26.6564 79.321 26.6564C79.0124 26.9664 79.0123 26.9664 78.7037 26.9664H74.0741C73.7654 26.9664 73.4568 26.9664 73.4568 26.6564C73.1481 26.3465 73.1482 26.3465 73.1482 26.0365V16.7377C73.1482 15.4979 72.8395 14.568 72.5309 13.9481C72.2222 13.3282 71.2963 13.0182 70.3704 13.0182C69.4444 13.0182 68.8272 13.3282 68.5185 13.9481C68.2099 14.568 67.5926 15.4979 67.5926 16.7377V26.3465C67.5926 26.6564 67.5926 26.9664 67.284 26.9664C66.9753 27.2763 66.9753 27.2763 66.6667 27.2763H62.037C61.7284 27.2763 61.4198 27.2763 61.4198 26.9664C61.1111 26.6564 61.1111 26.6564 61.1111 26.3465V16.7377C61.1111 15.4979 60.8025 14.568 60.4938 13.9481C60.1852 13.3282 59.2593 13.0182 58.3333 13.0182C57.4074 13.0182 56.7901 13.3282 56.4815 13.6381C56.1728 14.2581 55.8642 14.878 55.8642 16.1178V25.7266C55.8642 26.0365 55.8642 26.3465 55.5556 26.3465C55.2469 26.6564 55.2469 26.6564 54.9383 26.6564H50.3086C50 26.6564 49.6914 26.6564 49.6914 26.3465C49.3827 26.0365 49.3827 26.0365 49.3827 25.7266V8.6788C49.3827 8.36884 49.3827 8.05888 49.6914 8.05888C50 7.74892 50 7.74892 50.3086 7.74892H54.9383C55.2469 7.74892 55.5556 7.74892 55.5556 8.05888C55.5556 8.36884 55.5556 8.6788 55.5556 8.6788V9.60868C56.1728 8.98876 56.7901 8.36884 57.4074 8.05888C58.3333 7.74892 58.9506 7.43896 60.1852 7.43896C61.4198 7.43896 62.6543 7.74892 63.5803 8.05888C64.5062 8.36884 65.4321 9.29872 66.0494 10.2286C66.9753 9.29872 67.9012 8.6788 68.8272 8.05888C69.7531 7.43896 70.9877 7.43896 72.2222 7.43896C73.1482 7.43896 74.3827 7.74892 75.3086 8.05888C76.2346 8.36884 76.8519 8.98876 77.7778 9.60868C78.3951 10.2286 79.0124 11.1585 79.321 12.3983C79.6296 13.3282 79.9383 14.878 79.9383 16.1178V26.0365H79.6296Z" fill="white"/>
<path d="M90.4321 4.64939C90.4321 4.95935 90.4321 5.2693 90.1235 5.2693C89.8148 5.57926 89.8148 5.57926 89.5062 5.57926H84.8765C84.5679 5.57926 84.2593 5.57926 84.2593 5.2693C83.9506 4.95935 83.9506 4.95935 83.9506 4.64939V0.929877C83.9506 0.619918 83.9506 0.309959 84.2593 0.309959C84.2593 0 84.2593 0 84.5679 0H89.1975C89.5062 0 89.8148 0 89.8148 0.309959C90.1235 0.619918 90.1235 0.619918 90.1235 0.929877V4.64939H90.4321Z" fill="#7C28BD"/>
<path d="M90.4321 26.0366C90.4321 26.3466 90.4321 26.6565 90.1235 26.6565C89.8148 26.9665 89.8148 26.9665 89.5062 26.9665H84.8765C84.5679 26.9665 84.2593 26.9665 84.2593 26.6565C83.9506 26.3466 83.9506 26.3466 83.9506 26.0366V8.6789C83.9506 8.36894 83.9506 8.05898 84.2593 8.05898C84.5679 7.74902 84.5679 7.74902 84.8765 7.74902H89.5062C89.8148 7.74902 90.1235 7.74902 90.1235 8.05898C90.4321 8.36894 90.4321 8.36894 90.4321 8.6789V26.0366Z" fill="white"/>
<path d="M114.198 26.0365C114.198 26.3465 114.198 26.6564 113.889 26.6564C113.58 26.9664 113.58 26.9664 113.272 26.9664H108.642C108.333 26.9664 108.025 26.9664 108.025 26.6564C107.716 26.3465 107.716 26.3465 107.716 26.0365V16.7377C107.716 15.8079 107.407 14.878 106.79 14.2581C106.173 13.6381 105.556 13.3282 104.321 13.3282C103.086 13.3282 102.469 13.6381 101.852 14.2581C101.235 14.878 101.235 15.8079 101.235 16.7377V26.0365C101.235 26.3465 101.235 26.6564 100.926 26.6564C100.617 26.9664 100.617 26.9664 100.309 26.9664H95.679C95.3704 26.9664 95.0617 26.9664 95.0617 26.6564C94.7531 26.3465 94.7531 26.3465 94.7531 26.0365V8.6788C94.7531 8.36884 94.7531 8.05888 95.0617 8.05888C95.3704 7.74892 95.3704 7.74892 95.679 7.74892H100.309C100.617 7.74892 100.926 7.74892 100.926 8.05888C101.235 8.36884 101.235 8.36884 101.235 8.6788V9.60868C101.235 9.29872 101.543 9.29872 101.852 8.98876C102.16 8.6788 102.469 8.36884 102.778 8.36884C103.086 8.36884 103.704 8.05888 104.321 7.74892C104.938 7.74892 105.556 7.43896 106.173 7.43896C107.407 7.43896 108.333 7.74892 109.568 8.05888C110.494 8.36884 111.42 8.98876 112.037 9.60868C112.654 10.2286 113.272 11.1585 113.58 12.3983C114.198 13.3282 114.198 14.568 114.198 15.8079V26.0365Z" fill="white"/>
<path d="M124.691 0.309959C124.691 0 124.383 0 124.074 0H119.444C119.136 0 118.827 0 118.827 0.309959C118.519 0.619918 118.519 0.619918 118.519 0.929877V4.64939C118.519 4.95935 118.519 5.2693 118.827 5.2693C119.136 5.57926 119.136 5.57926 119.444 5.57926H124.074C124.383 5.57926 124.691 5.57926 124.691 5.2693C125 4.95935 125 4.95935 125 4.64939V0.929877C125 0.619918 125 0.619918 124.691 0.309959Z" fill="white"/>
<path d="M125 8.6789V26.0366C125 26.3466 125 26.6565 124.691 26.6565C124.383 26.9665 124.383 26.9665 124.074 26.9665H119.444C119.136 26.9665 118.827 26.9665 118.827 26.6565C118.519 26.3466 118.519 26.3466 118.519 26.0366V8.6789C118.519 8.36894 118.519 8.05898 118.827 8.05898C119.136 7.74902 119.136 7.74902 119.444 7.74902H124.074C124.383 7.74902 124.691 7.74902 124.691 8.05898C125 8.36894 125 8.6789 125 8.6789Z" fill="white"/>
<path d="M136.111 13.9482C136.111 13.9482 139.506 15.808 139.506 17.0478C139.506 18.2876 136.111 20.1474 136.111 20.1474V26.3466C136.111 26.6565 136.111 26.9665 135.802 26.9665C135.494 27.2765 135.494 27.2765 135.185 27.2765H130.556C130.247 27.2765 129.938 27.2765 129.938 26.9665C129.63 26.6565 129.63 26.6565 129.63 26.3466V1.85981C129.63 1.54985 129.63 1.23989 129.938 1.23989C130.247 0.929932 130.247 0.929932 130.556 0.929932H135.185C135.494 0.929932 135.802 0.929932 135.802 1.23989C136.111 1.54985 136.111 1.54985 136.111 1.85981V13.9482Z" fill="white"/>
<path d="M150 26.3466C150 26.6565 150 26.9665 149.691 26.9665C149.691 27.2764 149.383 27.2764 149.074 27.2764H143.518C143.21 27.2764 142.901 27.2764 142.593 26.9665C142.593 26.9665 142.593 26.9665 142.284 26.9665C141.975 26.9665 141.975 26.6565 141.975 26.6565L137.654 21.6972L133.951 17.6677C133.642 17.3578 133.642 16.7378 133.951 16.1179L141.049 8.36894C141.049 8.36894 141.358 8.05898 141.667 8.05898C141.975 8.05898 142.284 7.74902 142.593 7.74902H148.148C148.457 7.74902 148.457 7.74902 148.765 8.05898C149.074 8.36894 149.074 8.36894 149.074 8.6789V8.98886L148.765 9.29882L142.284 16.7378L150 25.4167C149.691 25.7267 149.691 25.7267 150 26.3466C150 26.0366 150 26.0366 150 26.3466Z" fill="#70E61C"/>
</svg>
